PathFileType	4	(X/Y/Z)	64_1_22_p0_0-375.trc
DataRate	CameraRate	NumFrames	NumMarkers	Units	OrigDataRate	OrigDataStartFrame	OrigNumFrames
42.0	42.0	6	27	m	42.0	188	376
Frame#	Time	RHip			RKnee			RAnkle			RBigToe			RSmallToe			RHeel			LHip			LKnee			LAnkle			LBigToe			LSmallToe			LHeel			Neck			Head			Nose			RShoulder			RElbow			RWrist			RThumb			RIndex			RPinky			LShoulder			LElbow			LWrist			LThumb			LIndex			LPinky			
		X1	Y1	Z1	X2	Y2	Z2	X3	Y3	Z3	X4	Y4	Z4	X5	Y5	Z5	X6	Y6	Z6	X7	Y7	Z7	X8	Y8	Z8	X9	Y9	Z9	X10	Y10	Z10	X11	Y11	Z11	X12	Y12	Z12	X13	Y13	Z13	X14	Y14	Z14	X15	Y15	Z15	X16	Y16	Z16	X17	Y17	Z17	X18	Y18	Z18	X19	Y19	Z19	X20	Y20	Z20	X21	Y21	Z21	X22	Y22	Z22	X23	Y23	Z23	X24	Y24	Z24	X25	Y25	Z25	X26	Y26	Z26	X27	Y27	Z27	
188	4.476190476190476	0.2986813348527166	0.723551551471596	0.5749547995061581	0.2858030033657588	0.9614598300979516	0.9457323223659783	0.23557824442119307	1.2562007927494008	1.3140616809861334	0.28278536314996167	1.1050937543309067	1.4148944915360895	0.3364260516509647	1.1226709823241412	1.3924297957452558	0.19708046676210328	1.3413512918833037	1.3351890043159889	0.09652763565516025	0.6996212801781483	0.5888362849064976	0.07506680414868014	0.9212985491458158	0.9696626971174932	0.06883622400515925	1.1731154981808338	1.3267647669926246	0.13773122970270033	1.0363546149933605	1.4184833344300198	0.05708091911979434	1.0809730070794694	1.4111435393188958	0.06795989293367785	1.2285686460326302	1.3553094721221886	0.23609628302453653	0.4521765298726834	0.16874191837816052	0.28842027095713313	0.2807138437060792	-0.01102328507594983	0.2935780472814506	0.28439931177237987	0.13513314467451215	0.3787985569998455	0.5151243707372574	0.23232462887146005	0.40650912608939904	0.7285735306694346	0.4081367468897795	0.38311882085456006	0.5957622413044604	0.6234413101335603	0.3262046590479853	0.5046804914756094	0.7017658559666249	0.3229794296870587	0.5287698949709072	0.7252784091286162	0.34585405510493356	0.5732570870038606	0.7305733819469604	0.10070404872139654	0.4120783722217817	0.26442386793770395	0.013888629207327573	0.5643405782786916	0.4866636294164244	0.19637230630938396	0.5473204456401445	0.630928537482188	0.32513419911692953	0.5274416729563356	0.6850121570253539	0.33681782147499756	0.5309927473838967	0.7111616562054593	0.27970250708282823	0.5880837990937428	0.7248903698702794
189	4.5	0.29478631567674396	0.7254368969935685	0.584240005340393	0.2861137591941111	0.9689534342140894	0.952784694968743	0.24522419625862643	1.239551570848783	1.3130347524069022	0.28282803175338594	1.1044359290483783	1.414469937691427	0.33662074011293097	1.1198229950993366	1.3926569507640643	0.19670334531906308	1.3555212976101991	1.3331486106909647	0.09233533887661974	0.7013732431544765	0.5967294179844009	0.07407479059973039	0.927441306526436	0.9775944657653106	0.06901436992519153	1.172966521223417	1.3267330769790149	0.13555987801508632	1.0382401941899408	1.417191603466419	0.06869950507820036	1.049747937013662	1.4091102668191373	0.06578325172118021	1.2457969314765718	1.3599963937198352	0.2361086922349273	0.4521269128272808	0.16877973529576537	0.2883796247676045	0.2806472344008872	-0.011027989192205281	0.2935655501399715	0.2843236461829001	0.13512653374042366	0.3788857862366224	0.51511072837931	0.2324225500202774	0.41407772012923755	0.7165328187772491	0.4115945159465581	0.38315260751376223	0.6068499581241175	0.6205678788368952	0.32908495336206595	0.5056174516034396	0.7016550828248247	0.3231393456627212	0.5288378156503082	0.7254054046647974	0.3462910902491163	0.5761516227675635	0.7331052404786751	0.10066615264444619	0.4120971866810078	0.2644245869894885	0.013860495763095297	0.564229738837413	0.4867137214236751	0.18475892686517204	0.5555599966431831	0.6295939783323217	0.32528151354973445	0.5271723163501155	0.6847714419766829	0.33419416014017683	0.5281070835245352	0.712101416087438	0.2765293542905762	0.5847257366506448	0.7261993214334009
190	4.523809523809524	0.29515021621331866	0.7121712980162997	0.5874812524725943	0.28290031814947625	0.947365092434871	0.9523105064670445	0.24611904361057796	1.2221741802115904	1.3137068867101487	0.28290076871489317	1.104219980742305	1.4145851767081	0.3367279838309493	1.119651016955711	1.3926688166168075	0.19406754579616547	1.3352750407889085	1.334941941629477	0.0917647799848531	0.7029967020554365	0.6004741073330961	0.074662481645356	0.924287534057919	0.9774784562585079	0.06824183070881129	1.1756859409889395	1.3348868803497507	0.13649355284593576	1.0387302771122933	1.4219037768182798	0.06857265395584751	1.0498779830415046	1.4095298742359323	0.06707108667135545	1.2293333742820707	1.3603791564695582	0.23609741284342586	0.45213282105549374	0.16878269637808427	0.2884106819009774	0.2817918853735081	-0.008100869051465261	0.29349648822860824	0.2843974091048822	0.13511569837931453	0.37892364716048654	0.5149182767595584	0.23251657953024382	0.4141929466910042	0.7132741500838835	0.4085658846549266	0.38322541922681924	0.6069940990618249	0.6205563100402322	0.32112291198272336	0.5160471379035484	0.6996861644830455	0.32282032865084537	0.5294360735124075	0.7253504430506241	0.3460046414038534	0.5731623541219756	0.7305692773780348	0.10065054298426795	0.4119615395086755	0.2644524879184587	0.014109295198771292	0.5610765035095359	0.48382192831053217	0.19296104086037102	0.5448410824641774	0.6319052711502926	0.325319884482517	0.5277277927566637	0.6845757605536509	0.3344368267373229	0.5388546767254011	0.7096127603868247	0.276428747676786	0.5847795397678042	0.7264713111653419
191	4.5476190476190474	0.29488554849750637	0.7251003765211083	0.5844627343037165	0.28209286501288533	0.9534434166753551	0.960230029079942	0.24610694055795054	1.2224675071692668	1.3138274459178079	0.28356592136840864	1.0887496119167746	1.4143526564896023	0.34577879057336547	1.0865584922390013	1.3919432350909668	0.1935826798049717	1.3561544802910435	1.3376059574836305	0.09166077118634974	0.7033311371031651	0.6005026587433643	0.07310220267155833	0.9296173987058652	0.9817650419761182	0.06911166940253076	1.1778384254197005	1.3315447623740755	0.1378499138834621	1.0238759265221777	1.4216298355322614	0.059290832148398476	1.0642058098300597	1.4106060739184418	0.06685116517562882	1.2285452346381607	1.3605976992815974	0.23612841549447905	0.45201578212730303	0.16885618944879258	0.28833751793920587	0.28174580853392384	-0.008073169822339857	0.29334522877668867	0.2844984012172497	0.13497606862844513	0.386596204505064	0.5023579805278933	0.23765345577205002	0.4141642957628754	0.7132766151932349	0.4086245055438202	0.38321572608910975	0.6068185557587112	0.6205379358841172	0.32111187207455105	0.5161410771218609	0.6994099505693904	0.3150666502535869	0.5401503543450484	0.7236259640428638	0.3460666322462905	0.5732398150320555	0.730243631768751	0.10068980157741855	0.41186810769960486	0.264526707502536	0.014022154889416806	0.5611894519285071	0.483643888395439	0.193095073897251	0.5446792405233208	0.6319491960582044	0.32493504900702364	0.528587501336121	0.6877745915050285	0.3371783869771495	0.5304145230384886	0.7113453725267459	0.2764027102341235	0.5813646792464746	0.7237790912975289
192	4.571428571428571	0.29442343866679743	0.7257001925213326	0.5869306641595619	0.28776952795797456	0.9656578650808152	0.9716457002999189	0.2477079610904318	1.2057204587475643	1.3184257532723347	0.2814902468312946	1.1072072045604944	1.4194277740554901	0.3493529078448232	1.0936345971069767	1.3910130641606144	0.19538937190452468	1.3244341384826328	1.3435918580653152	0.09048415613459997	0.7051554261124646	0.6058103741550205	0.07209875743061431	0.9307606850244688	0.9836823342609903	0.06895072230044787	1.1777885621725743	1.3317868181093089	0.13681837997522828	1.042617529652442	1.426385260006945	0.05862480395086134	1.0660381157212397	1.4116925808060516	0.06331370032730753	1.2234991128832071	1.3614009026316403	0.23651649678214362	0.44206679976027935	0.17673895365146738	0.2846987981593768	0.27967990832515816	-0.006819288515100339	0.29688451691387635	0.28459529970710473	0.13145019350658418	0.3829064361295881	0.4979545418208729	0.2356576074262168	0.41387445649530435	0.7147655316418197	0.41184495279842637	0.3796358648426946	0.6067235993656249	0.624154637808413	0.2780662120092218	0.5546332887339568	0.6905419189910674	0.27420482931847584	0.5786307770366597	0.709793852991928	0.3212919601732205	0.6253387647003374	0.724650220449401	0.10140929758910759	0.40292454282718737	0.27203279739372815	0.013219782399121043	0.5663267052724367	0.4897676541751388	0.18774972389908423	0.5609905235449064	0.6319960248467915	0.28905782348986875	0.5698789716104612	0.673645577735618	0.30078596691203113	0.5862029285159451	0.7006187376789337	0.2736154197393869	0.6045088649417054	0.721189969358722
193	4.595238095238095	0.29761739915543345	0.7456475859226225	0.5851986442932602	0.29029836978571344	0.9508550192786664	0.9679725262934885	0.23830482429944966	1.2219167832978042	1.319310895326479	0.28138767261789915	1.1071600310647958	1.4189146613411447	0.336821109945297	1.1186515291495158	1.3930213166219847	0.19546038754889822	1.3233342406338402	1.343286842418543	0.09361831305433976	0.7159842093826507	0.6110522814109416	0.07522665467659358	0.9333815916367753	0.9829178269320602	0.07039701576370629	1.161529197556964	1.3322682899342282	0.13665217587020326	1.042935584104205	1.4262506034162223	0.058803955243065906	1.065940636833732	1.4115209276714193	0.06690825712025551	1.2253409483254618	1.3610465843411659	0.233084114538418	0.4376983305574365	0.17516136974539645	0.2842871369919624	0.2798815181774812	-0.00687859190954821	0.2929860818209847	0.27773417435897296	0.12663722546342004	0.3752665644255314	0.5089847315754623	0.23122912922808755	0.41407098131873993	0.7167416178594582	0.41171286779238914	0.37974214137541873	0.5960457090754834	0.6312462597853293	0.2921262937588677	0.5339708599676286	0.6968096791495324	0.27675918683733636	0.563597218024452	0.7113371000387192	0.3097620524256889	0.6070183973184021	0.7265905986585128	0.09813476449261196	0.3992223719580049	0.27360563906449176	0.013094320782709726	0.566092061824171	0.49008460401831655	0.18531202513914244	0.5437532321327774	0.633063030827928	0.2965734719834328	0.5572841300952737	0.6770082093695098	0.31706702233374034	0.5491259601785982	0.7074580751753436	0.2672718448653543	0.5983399007393345	0.7280515544110948
